<?xml version="1.0" standalone="no"?>
<!DOCTYPE svg PUBLIC "-//W3C//DTD SVG 20010904//EN"
 "http://www.w3.org/TR/2001/REC-SVG-20010904/DTD/svg10.dtd">
<svg version="1.0" xmlns="http://www.w3.org/2000/svg"
 width="360.000000pt" height="360.000000pt" viewBox="0 0 360.000000 360.000000"
 preserveAspectRatio="xMidYMid meet">
<metadata>
Created by potrace 1.14, written by Peter Selinger 2001-2017
</metadata>
<g transform="translate(0.000000,360.000000) scale(0.100000,-0.100000)"
fill="#000000" stroke="none">
<path d="M868 2754 c-5 -4 -8 -53 -8 -109 l0 -102 -96 -6 c-52 -3 -101 -11
-109 -17 -9 -7 -13 -32 -13 -73 l1 -62 -66 -24 -67 -23 0 -47 0 -46 -75 -28
-75 -28 0 -666 c0 -630 1 -665 18 -657 59 27 222 75 307 90 83 16 150 19 405
19 305 0 432 -10 642 -49 55 -10 81 -10 135 0 211 39 338 49 643 49 255 0 322
-3 405 -19 85 -15 248 -63 308 -90 16 -8 17 27 17 657 l0 666 -75 28 -75 28 0
46 0 47 -67 23 -66 24 1 62 c0 41 -4 66 -13 73 -8 6 -57 14 -109 17 l-95 6 -3
106 -3 106 -74 -2 c-268 -8 -585 -147 -783 -345 l-78 -78 -78 78 c-161 161
-380 275 -627 326 -91 19 -218 30 -227 20z m162 -45 c112 -15 302 -78 406
-133 109 -58 221 -143 289 -219 l55 -62 0 -654 0 -654 -74 72 c-186 184 -433
293 -758 336 l-48 6 0 665 0 664 23 -4 c12 -3 60 -10 107 -17z m1670 -643 l0
-665 -47 -6 c-328 -44 -573 -152 -764 -340 l-69 -68 0 653 0 653 46 54 c174
203 458 334 827 382 4 1 7 -298 7 -663z m-1840 -119 c0 -425 3 -566 12 -575 7
-7 32 -12 56 -12 58 0 228 -35 322 -66 149 -50 306 -140 410 -235 43 -39 43
-40 10 -21 -118 68 -296 148 -415 185 -159 49 -240 62 -413 62 l-162 0 0 607
0 607 48 4 c26 2 66 4 90 5 l42 2 0 -563z m1999 557 l61 -7 0 -606 0 -606
-162 0 c-181 0 -258 -13 -438 -71 -105 -34 -359 -151 -393 -181 -9 -9 -20 -14
-23 -11 -8 9 139 123 218 169 144 84 357 152 518 166 41 3 81 10 88 16 9 7 12
134 12 573 l0 564 29 0 c15 0 56 -3 90 -6z m-2209 -711 c-1 -300 1 -547 3
-549 2 -3 47 0 100 6 160 18 353 -10 551 -80 96 -34 322 -137 315 -144 -2 -2
-35 6 -74 19 -331 110 -707 122 -963 31 l-42 -15 2 626 3 625 45 18 c25 10 48
16 53 13 4 -2 7 -250 7 -550z m2408 -106 l2 -626 -42 15 c-256 91 -632 79
-963 -31 -38 -13 -72 -21 -74 -19 -7 7 219 110 315 144 198 70 391 98 552 80
76 -8 97 -8 104 2 4 7 8 254 8 548 0 294 0 538 0 542 0 4 21 -1 48 -11 l47
-19 3 -625z"/>
</g>
</svg>
